<svg width="779" height="416" viewBox="0 0 779 416" fill="none" xmlns="http://www.w3.org/2000/svg">
<path d="M349.609 11.687C349.263 10.1523 348.618 8.70068 347.711 7.41513C346.804 6.12957 345.653 5.03523 344.323 4.19457C342.994 3.35392 341.511 2.78339 339.961 2.51562C338.411 2.24785 336.823 2.28806 335.288 2.63394L334.761 2.75262C333.227 3.09849 331.775 3.74327 330.489 4.65014C329.204 5.55701 328.11 6.70822 327.269 8.03802C326.428 9.36782 325.858 10.8502 325.59 12.4004C325.322 13.9507 325.362 15.5386 325.708 17.0733L366.802 199.42C367.148 200.955 367.793 202.407 368.699 203.692C369.606 204.978 370.757 206.072 372.087 206.913C373.417 207.753 374.899 208.324 376.45 208.592C378 208.859 379.588 208.819 381.123 208.473L381.649 208.355C383.184 208.009 384.636 207.364 385.921 206.457C387.207 205.55 388.301 204.399 389.142 203.069C389.982 201.739 390.553 200.257 390.821 198.707C391.089 197.157 391.048 195.569 390.702 194.034L349.609 11.687Z" stroke="#988299" stroke-width="2"/>
<path d="M260.935 157.724L288.445 275.734" stroke="#8A8092" stroke-width="2"/>
<path d="M288.445 275.733C292.939 295.273 297.492 314.773 302.105 334.233C302.992 337.96 303.989 340.553 305.095 342.013C309.205 347.423 317.685 348.723 322.835 344.143C324.955 342.257 326.319 339.913 326.925 337.113C327.305 335.38 327.055 332.673 326.175 328.993C322.349 313.047 318.565 297.123 314.825 281.223" stroke="#7F7C8C" stroke-width="2"/>
<path d="M314.825 281.224L285.335 154.464" stroke="#8A8092" stroke-width="2"/>
<path d="M285.335 154.463C278.895 126.337 272.399 98.2335 265.845 70.1535C264.999 66.5268 264.212 64.1601 263.485 63.0534C259.675 57.2434 251.855 55.6235 246.125 59.7035C242.545 62.2501 240.762 65.7468 240.775 70.1935C240.775 70.386 240.799 70.5774 240.845 70.7635L260.935 157.723" stroke="#988299" stroke-width="2"/>
<path d="M285.335 154.464L260.935 157.724" stroke="#361A44" stroke-width="2"/>
<path d="M314.825 281.223L288.445 275.733" stroke="#1D1437" stroke-width="2"/>
<path d="M312.225 171.043C312.552 173.05 312.955 175.043 313.435 177.023C319.375 201.41 325.289 226.683 331.175 252.843C334.425 267.323 338.375 281.713 340.785 294.173C341.745 299.103 343.845 303.803 347.915 305.793C354.735 309.133 361.775 306.253 364.965 299.343C366.555 295.923 365.485 292.033 364.485 287.743C355.279 248.23 346.039 208.74 336.765 169.273" stroke="#8A8092" stroke-width="2"/>
<path d="M336.765 169.274C333.845 155.434 330.385 141.114 327.455 127.914C324.475 114.474 320.362 96.2802 315.115 73.3336C313.695 67.0936 309.855 62.9636 303.525 62.5936C297.375 62.2236 291.805 66.5036 290.595 72.2336C290.282 73.7469 290.702 76.8936 291.855 81.6736C293.595 88.8736 294.799 93.9669 295.465 96.9536C301.005 121.667 306.592 146.364 312.225 171.044" stroke="#988299" stroke-width="2"/>
<path d="M336.765 169.273L312.225 171.043" stroke="#361A44" stroke-width="2"/>
<path d="M417.169 98.6153C416.499 95.64 414.674 93.0529 412.096 91.4231C409.518 89.7933 406.398 89.2544 403.422 89.9249L402.252 90.1887C400.778 90.5207 399.385 91.1397 398.151 92.0102C396.917 92.8808 395.866 93.9858 395.059 95.2623C394.252 96.5389 393.705 97.9618 393.448 99.45C393.191 100.938 393.229 102.462 393.561 103.936L406.902 163.131C407.572 166.106 409.397 168.694 411.975 170.323C414.553 171.953 417.673 172.492 420.648 171.822L421.819 171.558C423.292 171.226 424.686 170.607 425.92 169.736C427.154 168.866 428.204 167.761 429.011 166.484C429.818 165.208 430.366 163.785 430.623 162.296C430.88 160.808 430.842 159.284 430.509 157.811L417.169 98.6153Z" stroke="#988299" stroke-width="2"/>
<path d="M187.735 129.983C172.855 141.853 159.065 151.963 143.565 159.853C128.825 167.353 113.025 173.957 96.1653 179.663" stroke="#8A8092" stroke-width="2"/>
<path d="M96.1654 179.664C82.2787 184.024 73.1054 186.697 68.6454 187.684C62.2721 189.091 55.5754 190.987 48.5554 193.374C38.2354 196.887 29.4821 202.281 22.2954 209.554" stroke="#7F7C8C" stroke-width="2"/>
<path d="M22.2954 209.554C8.60535 222.594 0.485348 241.454 1.02535 261.024C1.51202 278.717 7.90868 293.614 20.2154 305.714C33.9154 319.18 50.4153 325.21 69.7153 323.804C74.1753 323.484 80.3154 322.234 85.7054 321.374C85.8541 321.352 86.0054 321.384 86.1319 321.462C86.2584 321.541 86.3518 321.662 86.3953 321.804C92.0287 339.01 96.2453 352.14 99.0453 361.194C100.975 367.454 103.785 374.844 105.645 381.264C107.812 388.757 109.265 393.2 110.005 394.594C116.159 406.134 125.315 412.544 137.475 413.824C151.715 415.317 162.695 410.137 170.415 398.284C176.795 388.484 176.815 376.094 173.315 365.434C167.635 348.14 161.495 328.84 154.895 307.534C154.874 307.469 154.868 307.399 154.877 307.331C154.886 307.263 154.91 307.198 154.947 307.141C154.984 307.083 155.034 307.035 155.093 306.999C155.151 306.963 155.217 306.941 155.285 306.934C166.759 305.714 178.322 305.01 189.975 304.824" stroke="#777887" stroke-width="2"/>
<path d="M189.975 304.824C221.462 304.917 250.785 312.967 277.945 328.974C277.971 328.989 278.001 328.996 278.031 328.994C278.06 328.992 278.089 328.981 278.113 328.963C278.136 328.945 278.154 328.92 278.163 328.891C278.173 328.863 278.173 328.832 278.165 328.804L264.035 269.514" stroke="#7F7C8C" stroke-width="2"/>
<path d="M264.035 269.513L235.465 148.273C235.452 148.217 235.424 148.165 235.384 148.124C235.343 148.083 235.292 148.054 235.236 148.041C235.179 148.027 235.121 148.03 235.066 148.048C235.011 148.066 234.962 148.099 234.925 148.143C230.865 152.657 226.949 156.597 223.175 159.963C207.062 174.33 189.835 186.847 171.495 197.513C164.575 201.543 158.805 204.083 150.465 208.253C139.195 213.883 126.515 218.353 114.315 222.683" stroke="#8A8092" stroke-width="2"/>
<path d="M114.315 222.684C97.842 227.684 81.2853 232.43 64.6453 236.924C62.9653 237.377 61.3886 237.977 59.9153 238.724" stroke="#7F7C8C" stroke-width="2"/>
<path d="M59.9154 238.723C52.2054 242.273 47.7054 249.743 47.2954 258.143C47.1687 260.63 47.8387 264.107 49.3054 268.573C51.432 275.053 54.4587 285.597 58.3854 300.203C58.4035 300.275 58.4021 300.351 58.3816 300.422C58.361 300.493 58.3219 300.557 58.2685 300.608C58.2151 300.658 58.1494 300.693 58.0784 300.708C58.0074 300.723 57.9337 300.718 57.8654 300.693C44.2054 295.943 33.3954 289.063 28.0154 275.443C20.7054 256.943 27.1054 236.233 42.2254 223.243" stroke="#777887" stroke-width="2"/>
<path d="M42.2253 223.244C45.4053 220.871 48.5053 219.057 51.5253 217.804C56.8753 215.594 63.4353 213.334 69.8853 211.744C87.9187 207.291 105.615 201.861 122.975 195.454" stroke="#7F7C8C" stroke-width="2"/>
<path d="M122.975 195.454C154.689 183.607 183.032 166.377 208.005 143.764" stroke="#8A8092" stroke-width="2"/>
<path d="M208.005 143.764C215.492 137.024 222.405 129.814 228.745 122.134C228.91 121.932 229.025 121.695 229.083 121.444C229.14 121.192 229.137 120.932 229.075 120.684L222.545 93.3138C222.527 93.2401 222.488 93.1729 222.434 93.1199C222.379 93.0669 222.311 93.0303 222.237 93.0146C222.164 92.9988 222.088 93.0045 222.019 93.0309C221.949 93.0574 221.889 93.1034 221.845 93.1638C218.159 97.9771 214.199 102.904 209.965 107.944C203.895 115.164 195.285 122.894 187.735 129.984" stroke="#988299" stroke-width="2"/>
<path d="M208.005 143.763L187.735 129.983" stroke="#361A44" stroke-width="2"/>
<path d="M122.975 195.454C114.065 190.154 105.485 184.254 96.1653 179.664" stroke="#1D1437" stroke-width="2"/>
<path d="M42.2254 223.244C35.292 225.337 29.1254 224.227 23.7254 219.914C20.8854 217.634 20.4087 214.18 22.2954 209.554" stroke="#090C2C" stroke-width="2"/>
<path d="M59.9153 238.724C61.6353 247.424 66.092 254.464 73.2853 259.844C78.2386 263.55 83.5586 266.977 89.2453 270.124C102.452 277.437 117.119 285.747 133.245 295.054C139.025 298.387 146.962 301.61 157.055 304.724C157.393 304.823 157.741 304.864 158.085 304.844C162.839 304.537 168.229 304.057 174.255 303.404C179.802 302.81 185.042 303.284 189.975 304.824" stroke="#090C2C" stroke-width="2"/>
<path d="M264.035 269.514C264.349 273.4 264.309 277.237 263.915 281.024C262.895 290.734 253.735 290.144 246.855 288.184C240.549 286.397 234.435 284.15 228.515 281.444C192.962 265.204 162.309 251.16 136.555 239.314C127.665 235.224 120.435 230.514 114.315 222.684" stroke="#1D1437" stroke-width="2"/>
<path d="M456.705 225.473C456.705 225.415 456.694 225.358 456.672 225.305C456.65 225.251 456.617 225.203 456.576 225.162C456.536 225.121 456.487 225.089 456.434 225.067C456.38 225.045 456.323 225.033 456.265 225.033H422.815C422.699 225.033 422.587 224.987 422.504 224.904C422.422 224.822 422.375 224.71 422.375 224.593V210.113C422.375 209.996 422.422 209.885 422.504 209.802C422.587 209.72 422.699 209.673 422.815 209.673H460.485C460.602 209.673 460.714 209.627 460.796 209.544C460.879 209.462 460.925 209.35 460.925 209.233V195.973C460.925 195.857 460.879 195.745 460.796 195.662C460.714 195.58 460.602 195.533 460.485 195.533H405.595C405.479 195.533 405.367 195.58 405.284 195.662C405.202 195.745 405.155 195.857 405.155 195.973V268.683C405.155 268.741 405.167 268.798 405.189 268.852C405.211 268.905 405.243 268.953 405.284 268.994C405.325 269.035 405.374 269.068 405.427 269.09C405.48 269.112 405.538 269.123 405.595 269.123H461.595C461.653 269.123 461.71 269.112 461.764 269.09C461.817 269.068 461.866 269.035 461.906 268.994C461.947 268.953 461.98 268.905 462.002 268.852C462.024 268.798 462.035 268.741 462.035 268.683V255.033C462.035 254.975 462.024 254.918 462.002 254.865C461.98 254.811 461.947 254.763 461.906 254.722C461.866 254.681 461.817 254.649 461.764 254.627C461.71 254.605 461.653 254.593 461.595 254.593H422.745C422.629 254.593 422.517 254.547 422.434 254.464C422.352 254.382 422.305 254.27 422.305 254.153V239.543C422.305 239.426 422.352 239.315 422.434 239.232C422.517 239.15 422.629 239.103 422.745 239.103H456.265C456.323 239.103 456.38 239.092 456.434 239.07C456.487 239.048 456.536 239.015 456.576 238.974C456.617 238.933 456.65 238.885 456.672 238.832C456.694 238.778 456.705 238.721 456.705 238.663V225.473Z" stroke="#777887" stroke-width="2"/>
<path d="M510.595 249.564C510.295 249.171 509.982 248.584 509.655 247.804C508.642 245.357 506.492 239.514 503.205 230.274C502.319 227.787 498.439 216.374 491.565 196.034C491.507 195.865 491.397 195.718 491.25 195.614C491.103 195.51 490.926 195.454 490.745 195.454H473.045C473.009 195.455 472.973 195.465 472.941 195.482C472.909 195.5 472.881 195.525 472.861 195.555C472.84 195.585 472.827 195.62 472.823 195.656C472.818 195.693 472.823 195.73 472.835 195.764L501.095 268.394C501.166 268.576 501.291 268.733 501.453 268.844C501.615 268.955 501.808 269.014 502.005 269.014H518.015C518.235 269.015 518.449 268.948 518.628 268.822C518.808 268.697 518.943 268.519 519.015 268.314C522.749 257.761 526.062 249.037 528.955 242.144C536.165 224.954 539.585 215.394 547.235 196.254C547.266 196.175 547.278 196.09 547.269 196.006C547.261 195.922 547.232 195.841 547.186 195.771C547.139 195.701 547.077 195.644 547.004 195.604C546.93 195.565 546.849 195.544 546.765 195.544H530.405C530.27 195.544 530.139 195.585 530.028 195.662C529.917 195.739 529.832 195.848 529.785 195.974C525.925 206.461 520.952 220.264 514.865 237.384C512.979 242.697 511.699 246.727 511.025 249.474C511.016 249.52 510.993 249.561 510.96 249.594C510.927 249.627 510.885 249.65 510.84 249.659C510.794 249.669 510.747 249.665 510.703 249.648C510.66 249.631 510.622 249.602 510.595 249.564Z" stroke="#777887" stroke-width="2"/>
<path d="M577.695 210.183C577.694 210.115 577.706 210.047 577.732 209.983C577.758 209.919 577.796 209.861 577.845 209.813C577.893 209.764 577.951 209.726 578.015 209.7C578.078 209.675 578.147 209.662 578.215 209.663L615.845 209.673C615.965 209.673 616.079 209.626 616.164 209.542C616.248 209.457 616.295 209.343 616.295 209.223L616.325 195.963C616.325 195.847 616.279 195.735 616.196 195.652C616.114 195.57 616.002 195.523 615.885 195.523L560.895 195.563C560.796 195.566 560.702 195.606 560.633 195.675C560.564 195.744 560.525 195.837 560.525 195.933L560.625 268.473C560.625 268.61 560.68 268.74 560.777 268.838C560.874 268.935 561.007 268.991 561.145 268.993L616.785 269.143C616.95 269.143 617.107 269.078 617.224 268.962C617.34 268.846 617.405 268.688 617.405 268.523V254.903C617.405 254.8 617.365 254.701 617.294 254.628C617.223 254.555 617.126 254.513 617.025 254.513L578.005 254.593C577.969 254.593 577.932 254.586 577.898 254.571C577.864 254.557 577.833 254.535 577.807 254.509C577.781 254.482 577.761 254.45 577.747 254.414C577.733 254.379 577.725 254.342 577.725 254.303L577.705 239.623C577.705 239.467 577.769 239.317 577.881 239.206C577.994 239.096 578.146 239.033 578.305 239.033L611.585 239.133C611.734 239.133 611.876 239.074 611.981 238.969C612.086 238.864 612.145 238.722 612.145 238.573L612.035 225.373C612.035 225.257 611.988 225.145 611.904 225.062C611.819 224.98 611.705 224.933 611.585 224.933L578.255 225.113C578.162 225.113 578.072 225.077 578.004 225.012C577.937 224.946 577.898 224.857 577.895 224.763L577.695 210.183Z" stroke="#777887" stroke-width="2"/>
<path d="M651.675 223.504L685.885 268.574C685.967 268.677 686.07 268.759 686.188 268.817C686.305 268.874 686.434 268.904 686.565 268.904H701.225C701.308 268.904 701.386 268.871 701.445 268.813C701.503 268.755 701.535 268.676 701.535 268.594V196.094C701.535 196.024 701.522 195.955 701.495 195.891C701.468 195.827 701.429 195.768 701.38 195.719C701.331 195.67 701.272 195.631 701.208 195.604C701.144 195.578 701.075 195.564 701.005 195.564H685.695C685.636 195.564 685.578 195.576 685.523 195.598C685.469 195.621 685.419 195.654 685.377 195.696C685.335 195.738 685.302 195.787 685.28 195.842C685.257 195.896 685.245 195.955 685.245 196.014V241.474C685.246 241.488 685.242 241.502 685.234 241.513C685.226 241.525 685.215 241.534 685.202 241.54C685.189 241.545 685.175 241.546 685.161 241.544C685.148 241.541 685.135 241.534 685.125 241.524L650.515 195.934C650.422 195.812 650.302 195.714 650.165 195.646C650.028 195.579 649.878 195.544 649.725 195.544H635.875C635.735 195.544 635.6 195.601 635.501 195.702C635.401 195.803 635.345 195.941 635.345 196.084V268.584C635.345 268.717 635.397 268.844 635.489 268.937C635.581 269.031 635.705 269.084 635.835 269.084H651.135C651.239 269.084 651.338 269.043 651.411 268.97C651.484 268.897 651.525 268.797 651.525 268.694V223.554C651.522 223.535 651.526 223.516 651.536 223.499C651.545 223.483 651.561 223.471 651.579 223.465C651.597 223.459 651.617 223.459 651.634 223.466C651.652 223.474 651.667 223.487 651.675 223.504Z" stroke="#777887" stroke-width="2"/>
<path d="M746.345 269.083C750.039 269.09 752.782 269.1 754.575 269.113C754.708 269.113 754.835 269.061 754.929 268.967C755.023 268.873 755.075 268.746 755.075 268.613V210.553C755.075 210.373 755.147 210.2 755.274 210.072C755.402 209.945 755.575 209.873 755.755 209.873H776.825C776.873 209.873 776.919 209.854 776.953 209.821C776.986 209.787 777.005 209.741 777.005 209.693V195.813C777.005 195.744 776.979 195.678 776.932 195.63C776.885 195.581 776.822 195.553 776.755 195.553C762.855 195.507 752.739 195.48 746.405 195.473C740.065 195.467 729.945 195.48 716.045 195.513C715.981 195.513 715.919 195.539 715.872 195.586C715.825 195.633 715.798 195.696 715.795 195.763L715.775 209.643C715.775 209.691 715.794 209.737 715.828 209.771C715.862 209.804 715.908 209.823 715.955 209.823L737.025 209.863C737.206 209.863 737.379 209.935 737.506 210.063C737.634 210.19 737.705 210.363 737.705 210.543L737.615 268.603C737.618 268.734 737.672 268.859 737.765 268.95C737.859 269.042 737.984 269.093 738.115 269.093C739.909 269.087 742.652 269.083 746.345 269.083Z" stroke="#777887" stroke-width="2"/>
<path d="M492.015 318.76C491.989 313.737 489.88 308.931 486.152 305.398C482.424 301.866 477.382 299.897 472.136 299.924C466.89 299.952 461.87 301.973 458.179 305.545C454.488 309.116 452.429 313.944 452.456 318.967C452.482 323.991 454.591 328.797 458.319 332.329C462.047 335.862 467.089 337.831 472.335 337.804C477.58 337.776 482.601 335.754 486.292 332.183C489.983 328.612 492.041 323.783 492.015 318.76Z" stroke="#8F8D8F" stroke-width="2"/>
<path d="M530.965 333.664C532.159 333.657 532.952 333.617 533.345 333.544C533.528 333.509 533.7 333.433 533.848 333.322C533.995 333.21 534.114 333.068 534.195 332.904C534.195 332.89 536.922 326.65 542.375 314.184C542.575 313.737 542.792 313.38 543.025 313.114C543.046 313.09 543.074 313.072 543.105 313.064C543.136 313.056 543.169 313.058 543.199 313.069C543.229 313.08 543.256 313.099 543.275 313.125C543.293 313.151 543.304 313.182 543.305 313.214V336.744C543.305 336.903 543.369 337.055 543.481 337.168C543.594 337.28 543.746 337.344 543.905 337.344H550.145C550.31 337.344 550.467 337.277 550.584 337.159C550.7 337.041 550.765 336.881 550.765 336.714V300.844C550.765 300.768 550.75 300.692 550.721 300.622C550.692 300.551 550.649 300.487 550.595 300.434C550.542 300.38 550.478 300.337 550.407 300.308C550.337 300.279 550.261 300.264 550.185 300.264H541.795C541.655 300.263 541.518 300.302 541.4 300.377C541.281 300.451 541.186 300.557 541.125 300.684C538.265 306.79 535.122 313.707 531.695 321.434C531.449 321.987 531.209 322.264 530.975 322.264C530.715 322.264 530.462 321.987 530.215 321.434C526.775 313.714 523.619 306.804 520.745 300.704C520.685 300.577 520.59 300.471 520.471 300.397C520.353 300.322 520.215 300.283 520.075 300.284L511.685 300.294C511.531 300.294 511.384 300.355 511.275 300.464C511.166 300.572 511.105 300.72 511.105 300.874L511.165 336.744C511.165 336.911 511.231 337.071 511.347 337.189C511.463 337.307 511.621 337.374 511.785 337.374L518.025 337.364C518.184 337.364 518.337 337.3 518.45 337.188C518.562 337.075 518.625 336.923 518.625 336.764L518.585 313.234C518.586 313.202 518.597 313.171 518.616 313.145C518.635 313.119 518.661 313.099 518.691 313.089C518.722 313.078 518.754 313.076 518.785 313.084C518.816 313.092 518.844 313.11 518.865 313.134C519.099 313.4 519.315 313.757 519.515 314.204C524.989 326.664 527.725 332.9 527.725 332.914C527.806 333.077 527.925 333.221 528.073 333.332C528.22 333.443 528.392 333.519 528.575 333.554C528.969 333.627 529.765 333.664 530.965 333.664Z" stroke="#8F8D8F" stroke-width="2"/>
<path d="M592.395 333.644C593.595 333.644 594.392 333.607 594.785 333.534C594.968 333.499 595.14 333.423 595.288 333.312C595.435 333.201 595.554 333.058 595.635 332.894C595.635 332.881 598.359 326.634 603.805 314.154C604.005 313.707 604.222 313.347 604.455 313.074C604.476 313.05 604.504 313.033 604.535 313.025C604.566 313.017 604.599 313.018 604.629 313.029C604.659 313.04 604.686 313.059 604.705 313.085C604.723 313.111 604.734 313.142 604.735 313.174L604.755 336.734C604.755 336.893 604.819 337.046 604.931 337.158C605.044 337.271 605.196 337.334 605.355 337.334L611.595 337.324C611.76 337.324 611.917 337.257 612.034 337.139C612.15 337.021 612.215 336.861 612.215 336.694L612.195 300.794C612.195 300.718 612.18 300.642 612.151 300.572C612.122 300.502 612.079 300.438 612.025 300.384C611.972 300.33 611.908 300.287 611.837 300.258C611.767 300.229 611.692 300.214 611.615 300.214H603.225C603.084 300.215 602.945 300.257 602.827 300.333C602.708 300.409 602.614 300.517 602.555 300.644C599.695 306.757 596.552 313.68 593.125 321.414C592.879 321.967 592.635 322.244 592.395 322.244C592.135 322.244 591.882 321.967 591.635 321.414C588.189 313.687 585.029 306.77 582.155 300.664C582.095 300.539 582 300.433 581.882 300.358C581.763 300.284 581.626 300.244 581.485 300.244L573.085 300.264C573.009 300.264 572.934 300.279 572.863 300.308C572.793 300.337 572.729 300.38 572.675 300.434C572.621 300.488 572.579 300.552 572.549 300.622C572.52 300.692 572.505 300.768 572.505 300.844L572.585 336.744C572.585 336.911 572.651 337.071 572.767 337.189C572.883 337.307 573.041 337.374 573.205 337.374L579.455 337.364C579.613 337.361 579.763 337.297 579.873 337.185C579.984 337.072 580.045 336.921 580.045 336.764L579.995 313.214C579.997 313.182 580.007 313.151 580.026 313.125C580.045 313.099 580.071 313.08 580.101 313.069C580.132 313.058 580.164 313.057 580.195 313.065C580.226 313.073 580.254 313.09 580.275 313.114C580.515 313.38 580.735 313.737 580.935 314.184C586.415 326.651 589.155 332.891 589.155 332.904C589.237 333.069 589.358 333.213 589.507 333.324C589.656 333.435 589.83 333.51 590.015 333.544C590.409 333.617 591.202 333.651 592.395 333.644Z" stroke="#8F8D8F" stroke-width="2"/>
<path d="M700.525 321.083C703.212 324.903 707.042 330.063 712.015 336.563C712.199 336.805 712.437 337.001 712.711 337.137C712.985 337.272 713.288 337.343 713.595 337.343H719.885C719.997 337.343 720.104 337.299 720.182 337.22C720.261 337.141 720.305 337.035 720.305 336.923V300.753C720.305 300.621 720.253 300.493 720.159 300.4C720.065 300.306 719.938 300.253 719.805 300.253H712.625C712.527 300.253 712.433 300.292 712.364 300.362C712.294 300.431 712.255 300.525 712.255 300.623V323.383C712.255 323.448 712.233 323.511 712.195 323.564C712.156 323.616 712.102 323.655 712.04 323.675C711.978 323.695 711.912 323.695 711.85 323.675C711.788 323.655 711.734 323.616 711.695 323.563C711.395 323.15 709.732 320.797 706.705 316.503C704.019 312.683 700.192 307.523 695.225 301.023C695.041 300.78 694.801 300.583 694.525 300.447C694.249 300.312 693.944 300.242 693.635 300.243H687.345C687.234 300.243 687.127 300.287 687.048 300.366C686.97 300.445 686.925 300.552 686.925 300.663V336.833C686.925 336.966 686.978 337.093 687.072 337.187C687.166 337.28 687.293 337.333 687.425 337.333H694.605C694.703 337.333 694.798 337.294 694.867 337.225C694.936 337.155 694.975 337.061 694.975 336.963V314.203C694.976 314.138 694.997 314.075 695.036 314.023C695.074 313.97 695.128 313.931 695.19 313.911C695.252 313.891 695.319 313.891 695.381 313.912C695.443 313.932 695.497 313.971 695.535 314.023C695.835 314.43 697.499 316.783 700.525 321.083Z" stroke="#8F8D8F" stroke-width="2"/>
<path d="M437.145 306.904C437.226 306.823 437.271 306.714 437.273 306.6C437.275 306.487 437.233 306.377 437.155 306.293C428.395 296.863 411.475 298.294 405.355 310.184C399.665 321.234 406.435 335.924 419.265 337.564C426.032 338.43 431.899 336.297 436.865 331.163C436.896 331.133 436.915 331.092 436.919 331.05C436.923 331.007 436.911 330.966 436.885 330.934L432.925 325.723C432.891 325.677 432.847 325.638 432.797 325.61C432.746 325.581 432.69 325.564 432.633 325.559C432.576 325.555 432.519 325.563 432.466 325.582C432.413 325.602 432.365 325.633 432.325 325.673C429.145 328.753 425.512 330.014 421.425 329.454C412.045 328.174 408.615 315.144 416.625 309.624C421.759 306.084 426.912 306.74 432.085 311.594C432.137 311.642 432.204 311.669 432.273 311.669C432.342 311.669 432.408 311.642 432.455 311.594L437.145 306.904Z" stroke="#8F8D8F" stroke-width="2"/>
<path d="M649.635 330.563C652.022 330.577 654.502 330.58 657.075 330.573C657.247 330.57 657.416 330.62 657.559 330.717C657.702 330.813 657.812 330.952 657.875 331.113L659.795 336.043C659.946 336.429 660.209 336.76 660.55 336.994C660.89 337.228 661.293 337.353 661.705 337.353H668.085C668.243 337.352 668.398 337.313 668.536 337.238C668.675 337.162 668.793 337.054 668.88 336.923C668.967 336.792 669.02 336.641 669.035 336.484C669.05 336.327 669.026 336.169 668.965 336.023L654.235 300.983C654.181 300.851 654.09 300.736 653.974 300.652C653.857 300.567 653.72 300.516 653.575 300.503C652.515 300.403 651.239 300.353 649.745 300.353C648.252 300.347 646.972 300.387 645.905 300.473C645.763 300.487 645.627 300.54 645.513 300.624C645.398 300.709 645.309 300.822 645.255 300.953L630.265 335.883C630.203 336.028 630.177 336.187 630.19 336.344C630.204 336.502 630.256 336.654 630.342 336.786C630.428 336.919 630.545 337.028 630.684 337.104C630.822 337.18 630.977 337.221 631.135 337.223L637.515 337.263C637.927 337.266 638.33 337.145 638.673 336.915C639.015 336.685 639.281 336.357 639.435 335.973L641.395 331.053C641.459 330.892 641.569 330.753 641.712 330.657C641.855 330.56 642.024 330.51 642.195 330.513C644.769 330.54 647.249 330.557 649.635 330.563Z" stroke="#8F8D8F" stroke-width="2"/>
<path d="M741.855 300.943L741.915 336.683C741.915 336.773 741.933 336.861 741.967 336.944C742.001 337.026 742.051 337.101 742.115 337.164C742.178 337.227 742.253 337.277 742.335 337.312C742.418 337.346 742.506 337.363 742.595 337.363L758.105 337.333C763.157 337.325 768 335.396 771.566 331.969C775.133 328.543 777.133 323.901 777.125 319.063V318.443C777.122 316.048 776.625 313.677 775.664 311.465C774.703 309.254 773.297 307.245 771.525 305.554C769.753 303.863 767.651 302.523 765.338 301.61C763.025 300.697 760.547 300.229 758.045 300.233L742.535 300.263C742.355 300.263 742.182 300.335 742.055 300.463C741.927 300.59 741.855 300.763 741.855 300.943Z" stroke="#8F8D8F" stroke-width="2"/>
<path d="M109.485 315.574C116.399 336.594 123.622 359.174 131.155 383.314C133.825 391.864 145.505 393.544 150.335 385.814C152.269 382.714 152.525 378.967 151.105 374.574C146.959 361.801 140.265 340.927 131.025 311.954C130.954 311.728 130.802 311.537 130.597 311.415C130.393 311.294 130.15 311.25 129.915 311.294L109.795 315.054C109.739 315.064 109.685 315.086 109.638 315.119C109.59 315.151 109.551 315.194 109.521 315.243C109.492 315.292 109.474 315.347 109.467 315.405C109.461 315.462 109.467 315.519 109.485 315.574Z" stroke="#777887" stroke-width="2"/>
<path d="M472.835 307.539C469.959 307.388 467.138 308.429 464.994 310.433C462.849 312.437 461.557 315.24 461.4 318.225C461.323 319.703 461.527 321.181 462 322.575C462.473 323.969 463.207 325.252 464.16 326.35C465.112 327.448 466.264 328.339 467.55 328.974C468.836 329.608 470.231 329.973 471.655 330.048C474.532 330.199 477.352 329.158 479.497 327.153C481.641 325.149 482.934 322.347 483.09 319.362C483.168 317.884 482.964 316.406 482.491 315.012C482.017 313.618 481.283 312.335 480.331 311.237C479.379 310.139 478.227 309.248 476.94 308.613C475.654 307.978 474.259 307.613 472.835 307.539Z" stroke="#8F8D8F" stroke-width="2"/>
<path d="M643.985 323.084C643.964 323.134 643.955 323.188 643.96 323.243C643.965 323.297 643.983 323.349 644.012 323.394C644.042 323.44 644.082 323.477 644.13 323.503C644.178 323.53 644.231 323.543 644.285 323.544L654.495 323.704C654.549 323.704 654.602 323.692 654.65 323.667C654.698 323.642 654.739 323.606 654.77 323.561C654.8 323.517 654.82 323.466 654.826 323.412C654.832 323.358 654.825 323.304 654.805 323.254L649.915 309.804C649.893 309.74 649.852 309.684 649.797 309.645C649.742 309.605 649.677 309.583 649.609 309.582C649.541 309.581 649.475 309.601 649.419 309.639C649.363 309.677 649.32 309.731 649.295 309.794L643.985 323.084Z" stroke="#8F8D8F" stroke-width="2"/>
<path d="M750.515 307.863L750.435 329.383C750.435 329.537 750.496 329.685 750.605 329.793C750.714 329.902 750.861 329.963 751.015 329.963L757.175 329.983C760.029 329.994 762.77 328.855 764.795 326.819C766.821 324.782 767.965 322.014 767.975 319.123V318.243C767.981 316.812 767.708 315.393 767.172 314.069C766.636 312.744 765.848 311.54 764.852 310.524C763.857 309.508 762.674 308.701 761.37 308.148C760.067 307.595 758.668 307.308 757.255 307.303L751.095 307.283C750.942 307.283 750.794 307.344 750.685 307.453C750.576 307.562 750.515 307.709 750.515 307.863Z" stroke="#8F8D8F" stroke-width="2"/>
<path d="M335.288 2.63424L334.761 2.75296C328.307 4.20755 324.254 10.6191 325.708 17.0736L366.802 199.421C368.256 205.875 374.668 209.928 381.123 208.474L381.649 208.355C388.104 206.9 392.157 200.489 390.702 194.034L349.609 11.6874C348.154 5.2329 341.743 1.17966 335.288 2.63424Z" fill="#441C4B"/>
<path d="M285.335 154.462L260.935 157.722L240.845 70.7625C240.799 70.5765 240.775 70.385 240.775 70.1925C240.762 65.7458 242.545 62.2492 246.125 59.7025C251.855 55.6225 259.675 57.2425 263.485 63.0525C264.212 64.1591 264.999 66.5258 265.845 70.1525C272.399 98.2325 278.895 126.336 285.335 154.462Z" fill="#441C4B"/>
<path d="M336.765 169.273L312.225 171.043C306.592 146.363 301.005 121.666 295.465 96.9526C294.799 93.9659 293.595 88.8726 291.855 81.6726C290.702 76.8926 290.282 73.7459 290.595 72.2326C291.805 66.5026 297.375 62.2226 303.525 62.5926C309.855 62.9626 313.695 67.0926 315.115 73.3326C320.362 96.2793 324.475 114.473 327.455 127.913C330.385 141.113 333.845 155.433 336.765 169.273Z" fill="#441C4B"/>
<path d="M403.422 89.9247L402.252 90.1886C396.056 91.5849 392.165 97.7396 393.561 103.935L406.901 163.131C408.298 169.327 414.452 173.218 420.648 171.821L421.819 171.557C428.015 170.161 431.906 164.006 430.509 157.811L417.169 98.6152C415.773 92.4193 409.618 88.5284 403.422 89.9247Z" fill="#441C4B"/>
<path d="M208.005 143.764L187.735 129.984C195.285 122.894 203.895 115.164 209.965 107.944C214.199 102.904 218.159 97.9771 221.845 93.1638C221.889 93.1034 221.949 93.0574 222.019 93.0309C222.088 93.0045 222.164 92.9988 222.237 93.0146C222.311 93.0303 222.379 93.0669 222.434 93.1199C222.488 93.1729 222.527 93.2401 222.545 93.3138L229.075 120.684C229.137 120.932 229.14 121.192 229.083 121.444C229.025 121.695 228.91 121.932 228.745 122.134C222.405 129.814 215.492 137.024 208.005 143.764Z" fill="#441C4B"/>
<path d="M187.735 129.984L208.005 143.764C183.032 166.378 154.689 183.608 122.975 195.454C114.065 190.154 105.485 184.254 96.1653 179.664C113.025 173.958 128.825 167.354 143.565 159.854C159.065 151.964 172.855 141.854 187.735 129.984Z" fill="#28173D"/>
<path d="M264.035 269.514C264.349 273.401 264.309 277.238 263.915 281.024C262.895 290.734 253.735 290.144 246.855 288.184C240.549 286.398 234.435 284.151 228.515 281.444C192.962 265.204 162.309 251.161 136.555 239.314C127.665 235.224 120.435 230.514 114.315 222.684C126.515 218.354 139.195 213.884 150.465 208.254C158.805 204.084 164.575 201.544 171.495 197.514C189.835 186.848 207.062 174.331 223.175 159.964C226.949 156.598 230.865 152.658 234.925 148.144C234.962 148.1 235.011 148.067 235.066 148.049C235.121 148.031 235.18 148.028 235.236 148.042C235.292 148.055 235.343 148.084 235.384 148.125C235.424 148.166 235.453 148.218 235.465 148.274L264.035 269.514Z" fill="#28173D"/>
<path d="M285.335 154.463L314.825 281.223L288.445 275.733L260.935 157.723L285.335 154.463Z" fill="#28173D"/>
<path d="M336.765 169.273C346.039 208.74 355.279 248.23 364.485 287.743C365.485 292.033 366.555 295.923 364.965 299.343C361.775 306.253 354.735 309.133 347.915 305.793C343.845 303.803 341.745 299.103 340.785 294.173C338.375 281.713 334.425 267.323 331.175 252.843C325.289 226.683 319.375 201.41 313.435 177.023C312.955 175.043 312.552 173.05 312.225 171.043L336.765 169.273Z" fill="#28173D"/>
<path d="M122.975 195.454C105.615 201.861 87.9187 207.291 69.8854 211.744C63.4354 213.334 56.8754 215.594 51.5254 217.804C48.5054 219.057 45.4054 220.871 42.2254 223.244C35.292 225.337 29.1254 224.227 23.7254 219.914C20.8854 217.634 20.4087 214.181 22.2954 209.554C29.482 202.281 38.2354 196.887 48.5554 193.374C55.5754 190.987 62.272 189.091 68.6454 187.684C73.1054 186.697 82.2787 184.024 96.1654 179.664C105.485 184.254 114.065 190.154 122.975 195.454Z" fill="#111031"/>
<path d="M456.705 225.473V238.663C456.705 238.721 456.694 238.778 456.672 238.832C456.65 238.885 456.617 238.933 456.576 238.974C456.536 239.015 456.487 239.048 456.434 239.07C456.38 239.092 456.323 239.103 456.265 239.103H422.745C422.629 239.103 422.517 239.15 422.434 239.232C422.352 239.315 422.305 239.426 422.305 239.543V254.153C422.305 254.27 422.352 254.382 422.434 254.464C422.517 254.547 422.629 254.593 422.745 254.593H461.595C461.653 254.593 461.71 254.605 461.764 254.627C461.817 254.649 461.866 254.681 461.906 254.722C461.947 254.763 461.98 254.811 462.002 254.865C462.024 254.918 462.035 254.975 462.035 255.033V268.683C462.035 268.741 462.024 268.798 462.002 268.852C461.98 268.905 461.947 268.953 461.906 268.994C461.866 269.035 461.817 269.068 461.764 269.09C461.71 269.112 461.653 269.123 461.595 269.123H405.595C405.537 269.123 405.48 269.112 405.427 269.09C405.373 269.068 405.325 269.035 405.284 268.994C405.243 268.953 405.211 268.905 405.189 268.852C405.167 268.798 405.155 268.741 405.155 268.683V195.973C405.155 195.857 405.202 195.745 405.284 195.662C405.367 195.58 405.479 195.533 405.595 195.533H460.485C460.602 195.533 460.714 195.58 460.796 195.662C460.879 195.745 460.925 195.857 460.925 195.973V209.233C460.925 209.35 460.879 209.462 460.796 209.544C460.714 209.627 460.602 209.673 460.485 209.673H422.815C422.699 209.673 422.587 209.72 422.504 209.802C422.422 209.885 422.375 209.996 422.375 210.113V224.593C422.375 224.71 422.422 224.822 422.504 224.904C422.587 224.987 422.699 225.033 422.815 225.033H456.265C456.323 225.033 456.38 225.045 456.434 225.067C456.487 225.089 456.536 225.121 456.576 225.162C456.617 225.203 456.65 225.251 456.672 225.305C456.694 225.358 456.705 225.415 456.705 225.473Z" fill="#010726"/>
<path d="M510.595 249.563C510.622 249.601 510.66 249.63 510.703 249.647C510.747 249.664 510.794 249.668 510.84 249.658C510.885 249.649 510.927 249.626 510.96 249.593C510.993 249.56 511.016 249.519 511.025 249.473C511.699 246.726 512.979 242.696 514.865 237.383C520.952 220.263 525.925 206.46 529.785 195.973C529.832 195.847 529.917 195.738 530.028 195.661C530.139 195.584 530.27 195.543 530.405 195.543H546.765C546.848 195.543 546.93 195.564 547.003 195.603C547.077 195.643 547.139 195.7 547.186 195.77C547.232 195.84 547.261 195.921 547.269 196.005C547.278 196.089 547.266 196.174 547.235 196.253C539.585 215.393 536.165 224.953 528.955 242.143C526.062 249.036 522.749 257.76 519.015 268.313C518.943 268.518 518.807 268.696 518.628 268.821C518.449 268.947 518.235 269.014 518.015 269.013H502.005C501.808 269.013 501.615 268.954 501.453 268.843C501.29 268.732 501.166 268.575 501.095 268.393L472.835 195.763C472.822 195.729 472.818 195.692 472.822 195.656C472.827 195.619 472.84 195.584 472.86 195.554C472.881 195.524 472.908 195.499 472.941 195.481C472.973 195.464 473.009 195.454 473.045 195.453H490.745C490.926 195.453 491.103 195.509 491.25 195.613C491.397 195.717 491.507 195.864 491.565 196.033C498.439 216.373 502.319 227.786 503.205 230.273C506.492 239.513 508.642 245.356 509.655 247.803C509.982 248.583 510.295 249.17 510.595 249.563Z" fill="#010726"/>
<path d="M577.695 210.183L577.895 224.763C577.898 224.857 577.937 224.946 578.004 225.012C578.072 225.077 578.162 225.113 578.255 225.113L611.585 224.933C611.705 224.933 611.819 224.98 611.904 225.062C611.988 225.145 612.035 225.257 612.035 225.373L612.145 238.573C612.145 238.722 612.086 238.864 611.981 238.969C611.876 239.074 611.734 239.133 611.585 239.133L578.305 239.033C578.146 239.033 577.994 239.096 577.881 239.206C577.769 239.317 577.705 239.467 577.705 239.623L577.725 254.303C577.725 254.342 577.733 254.379 577.747 254.414C577.761 254.45 577.781 254.482 577.807 254.509C577.833 254.535 577.864 254.557 577.898 254.571C577.932 254.586 577.969 254.593 578.005 254.593L617.025 254.513C617.126 254.513 617.223 254.555 617.294 254.628C617.365 254.701 617.405 254.8 617.405 254.903V268.523C617.405 268.688 617.34 268.846 617.224 268.962C617.108 269.078 616.95 269.143 616.785 269.143L561.145 268.993C561.007 268.991 560.874 268.935 560.777 268.838C560.68 268.74 560.625 268.61 560.625 268.473L560.525 195.933C560.525 195.837 560.564 195.744 560.633 195.675C560.702 195.606 560.796 195.566 560.895 195.563L615.885 195.523C616.002 195.523 616.114 195.57 616.197 195.652C616.279 195.735 616.325 195.847 616.325 195.963L616.295 209.223C616.295 209.343 616.248 209.457 616.164 209.542C616.079 209.626 615.965 209.673 615.845 209.673L578.215 209.663C578.147 209.662 578.078 209.675 578.015 209.7C577.951 209.726 577.893 209.764 577.845 209.813C577.796 209.861 577.758 209.919 577.732 209.983C577.707 210.047 577.694 210.115 577.695 210.183Z" fill="#010726"/>
<path d="M651.675 223.503C651.667 223.486 651.652 223.473 651.634 223.465C651.617 223.458 651.597 223.458 651.579 223.464C651.561 223.47 651.545 223.482 651.536 223.498C651.526 223.515 651.522 223.534 651.525 223.553V268.693C651.525 268.796 651.484 268.896 651.411 268.969C651.338 269.042 651.239 269.083 651.135 269.083H635.835C635.705 269.083 635.581 269.03 635.489 268.936C635.397 268.843 635.345 268.716 635.345 268.583V196.083C635.345 195.94 635.401 195.802 635.501 195.701C635.6 195.6 635.735 195.543 635.875 195.543H649.725C649.878 195.543 650.028 195.578 650.165 195.645C650.302 195.713 650.422 195.811 650.515 195.933L685.125 241.523C685.135 241.533 685.148 241.54 685.161 241.543C685.175 241.545 685.189 241.544 685.202 241.539C685.215 241.533 685.226 241.524 685.234 241.512C685.242 241.501 685.246 241.487 685.245 241.473V196.013C685.245 195.954 685.257 195.895 685.28 195.841C685.302 195.786 685.335 195.737 685.377 195.695C685.419 195.653 685.469 195.62 685.523 195.597C685.578 195.575 685.636 195.563 685.695 195.563H701.005C701.075 195.563 701.144 195.577 701.208 195.603C701.272 195.63 701.331 195.669 701.38 195.718C701.429 195.767 701.468 195.826 701.495 195.89C701.522 195.954 701.535 196.023 701.535 196.093V268.593C701.535 268.675 701.503 268.754 701.445 268.812C701.386 268.87 701.308 268.903 701.225 268.903H686.565C686.434 268.903 686.305 268.873 686.188 268.816C686.07 268.759 685.967 268.676 685.885 268.573L651.675 223.503Z" fill="#010726"/>
<path d="M746.405 195.474C752.739 195.481 762.855 195.508 776.755 195.554C776.822 195.554 776.885 195.582 776.932 195.631C776.979 195.679 777.005 195.745 777.005 195.814V209.694C777.005 209.742 776.986 209.788 776.953 209.822C776.919 209.855 776.873 209.874 776.825 209.874H755.755C755.575 209.874 755.402 209.946 755.275 210.073C755.147 210.201 755.075 210.374 755.075 210.554V268.614C755.075 268.747 755.023 268.874 754.929 268.968C754.835 269.062 754.708 269.114 754.575 269.114C752.782 269.101 750.039 269.091 746.345 269.084C742.652 269.084 739.909 269.088 738.115 269.094C737.985 269.094 737.859 269.043 737.765 268.951C737.672 268.86 737.618 268.735 737.615 268.604L737.705 210.544C737.705 210.364 737.634 210.191 737.506 210.063C737.379 209.936 737.206 209.864 737.025 209.864L715.955 209.824C715.908 209.824 715.862 209.805 715.828 209.772C715.794 209.738 715.775 209.692 715.775 209.644L715.795 195.764C715.798 195.697 715.825 195.634 715.872 195.587C715.919 195.54 715.981 195.514 716.045 195.514C729.945 195.481 740.065 195.468 746.405 195.474Z" fill="#010726"/>
<path d="M22.2954 209.553C20.4087 214.179 20.8854 217.633 23.7254 219.913C29.1254 224.226 35.292 225.336 42.2253 223.243C27.1053 236.233 20.7054 256.943 28.0154 275.443C33.3954 289.063 44.2053 295.943 57.8653 300.693C57.9337 300.717 58.0074 300.722 58.0784 300.707C58.1494 300.692 58.2151 300.658 58.2685 300.607C58.3219 300.557 58.3609 300.493 58.3815 300.422C58.4021 300.35 58.4034 300.275 58.3853 300.203C54.4587 285.596 51.432 275.053 49.3053 268.573C47.8387 264.106 47.1687 260.629 47.2954 258.143C47.7054 249.743 52.2053 242.273 59.9153 238.723C61.6353 247.423 66.092 254.463 73.2854 259.843C78.2387 263.549 83.5587 266.976 89.2453 270.123C102.452 277.436 117.119 285.746 133.245 295.053C139.025 298.386 146.962 301.609 157.055 304.723C157.393 304.822 157.741 304.863 158.085 304.843C162.839 304.536 168.229 304.056 174.255 303.403C179.802 302.809 185.042 303.283 189.975 304.823C178.322 305.009 166.759 305.713 155.285 306.933C155.217 306.94 155.151 306.962 155.093 306.998C155.034 307.034 154.984 307.082 154.947 307.14C154.91 307.197 154.886 307.262 154.877 307.33C154.868 307.398 154.874 307.468 154.895 307.533C161.495 328.839 167.635 348.139 173.315 365.433C176.815 376.093 176.795 388.483 170.415 398.283C162.695 410.136 151.715 415.316 137.475 413.823C125.315 412.543 116.159 406.133 110.005 394.593C109.265 393.199 107.812 388.756 105.645 381.263C103.785 374.843 100.975 367.453 99.0453 361.193C96.2453 352.139 92.0287 339.009 86.3953 321.803C86.3518 321.661 86.2584 321.54 86.1319 321.461C86.0054 321.383 85.8541 321.351 85.7054 321.373C80.3154 322.233 74.1753 323.483 69.7153 323.803C50.4153 325.209 33.9154 319.179 20.2154 305.713C7.90868 293.613 1.51202 278.716 1.02535 261.023C0.485348 241.453 8.60535 222.593 22.2954 209.553ZM109.485 315.573C116.399 336.593 123.622 359.173 131.155 383.313C133.825 391.863 145.505 393.543 150.335 385.813C152.269 382.713 152.525 378.966 151.105 374.573C146.959 361.799 140.265 340.926 131.025 311.953C130.954 311.727 130.802 311.535 130.597 311.414C130.393 311.292 130.15 311.249 129.915 311.293L109.795 315.053C109.739 315.063 109.685 315.085 109.638 315.117C109.59 315.15 109.551 315.192 109.521 315.242C109.492 315.291 109.474 315.346 109.467 315.403C109.461 315.46 109.467 315.518 109.485 315.573Z" fill="#010726"/>
<path d="M114.315 222.684C120.435 230.514 127.665 235.224 136.555 239.314C162.309 251.16 192.962 265.204 228.515 281.444C234.435 284.15 240.549 286.397 246.855 288.184C253.735 290.144 262.895 290.734 263.915 281.024C264.309 277.237 264.349 273.4 264.035 269.514L278.165 328.804C278.173 328.832 278.173 328.863 278.163 328.891C278.154 328.92 278.136 328.944 278.113 328.963C278.089 328.981 278.06 328.992 278.031 328.994C278.001 328.996 277.971 328.989 277.945 328.974C250.785 312.967 221.462 304.917 189.975 304.824C185.042 303.284 179.802 302.81 174.255 303.404C168.229 304.057 162.839 304.537 158.085 304.844C157.741 304.864 157.393 304.823 157.055 304.724C146.962 301.61 139.025 298.387 133.245 295.054C117.119 285.747 102.452 277.437 89.2453 270.124C83.5586 266.977 78.2386 263.55 73.2853 259.844C66.092 254.464 61.6353 247.424 59.9153 238.724C61.3886 237.977 62.9653 237.377 64.6453 236.924C81.2853 232.43 97.842 227.684 114.315 222.684Z" fill="#111031"/>
<path d="M314.825 281.224C318.565 297.124 322.349 313.048 326.175 328.994C327.055 332.674 327.305 335.381 326.925 337.114C326.319 339.914 324.955 342.258 322.835 344.144C317.685 348.724 309.205 347.424 305.095 342.014C303.989 340.554 302.992 337.961 302.105 334.234C297.492 314.774 292.939 295.274 288.445 275.734L314.825 281.224Z" fill="#111031"/>
<path d="M492.015 318.76C492.041 323.783 489.983 328.612 486.292 332.183C482.601 335.754 477.58 337.776 472.334 337.804C467.089 337.831 462.047 335.862 458.319 332.329C454.591 328.797 452.482 323.991 452.456 318.967C452.429 313.944 454.488 309.116 458.179 305.545C461.87 301.973 466.89 299.952 472.136 299.924C477.382 299.897 482.423 301.866 486.151 305.398C489.88 308.931 491.989 313.737 492.015 318.76ZM472.835 307.539C469.959 307.388 467.138 308.43 464.994 310.434C462.849 312.438 461.557 315.241 461.4 318.225C461.323 319.703 461.526 321.182 462 322.576C462.473 323.97 463.207 325.252 464.16 326.35C465.112 327.448 466.264 328.34 467.55 328.974C468.836 329.609 470.231 329.974 471.655 330.048C474.532 330.199 477.352 329.158 479.497 327.154C481.641 325.15 482.934 322.347 483.09 319.362C483.168 317.884 482.964 316.406 482.491 315.012C482.017 313.618 481.283 312.335 480.331 311.238C479.379 310.14 478.227 309.248 476.94 308.613C475.654 307.979 474.259 307.614 472.835 307.539Z" fill="#323136"/>
<path d="M530.975 322.264C531.209 322.264 531.449 321.987 531.695 321.434C535.122 313.707 538.265 306.79 541.125 300.684C541.186 300.557 541.281 300.451 541.4 300.377C541.518 300.302 541.656 300.263 541.795 300.264H550.185C550.262 300.264 550.337 300.279 550.407 300.308C550.478 300.337 550.542 300.38 550.596 300.434C550.649 300.487 550.692 300.551 550.721 300.622C550.75 300.692 550.765 300.768 550.765 300.844V336.714C550.765 336.881 550.7 337.041 550.584 337.159C550.468 337.277 550.31 337.344 550.145 337.344H543.905C543.746 337.344 543.594 337.28 543.481 337.168C543.369 337.055 543.305 336.903 543.305 336.744V313.214C543.304 313.182 543.294 313.151 543.275 313.125C543.256 313.099 543.23 313.08 543.199 313.069C543.169 313.058 543.137 313.056 543.106 313.064C543.075 313.072 543.047 313.09 543.025 313.114C542.792 313.38 542.575 313.737 542.375 314.184C536.922 326.65 534.195 332.89 534.195 332.904C534.114 333.068 533.996 333.21 533.848 333.322C533.701 333.433 533.529 333.509 533.345 333.544C532.952 333.617 532.159 333.657 530.965 333.664C529.765 333.664 528.969 333.627 528.575 333.554C528.392 333.519 528.22 333.443 528.073 333.332C527.925 333.221 527.806 333.077 527.725 332.914C527.725 332.9 524.989 326.664 519.515 314.204C519.315 313.757 519.099 313.4 518.865 313.134C518.844 313.11 518.816 313.092 518.785 313.084C518.754 313.076 518.722 313.078 518.692 313.089C518.661 313.099 518.635 313.119 518.616 313.145C518.597 313.171 518.587 313.202 518.585 313.234L518.625 336.764C518.625 336.923 518.562 337.075 518.45 337.188C518.337 337.3 518.185 337.364 518.025 337.364L511.785 337.374C511.621 337.374 511.463 337.307 511.347 337.189C511.231 337.071 511.165 336.911 511.165 336.744L511.105 300.874C511.105 300.72 511.167 300.572 511.275 300.464C511.384 300.355 511.532 300.294 511.685 300.294L520.075 300.284C520.215 300.283 520.353 300.322 520.471 300.397C520.59 300.471 520.685 300.577 520.745 300.704C523.619 306.804 526.775 313.714 530.215 321.434C530.462 321.987 530.715 322.264 530.975 322.264Z" fill="#323136"/>
<path d="M592.395 333.643C591.202 333.65 590.409 333.616 590.015 333.543C589.83 333.509 589.656 333.434 589.507 333.323C589.358 333.212 589.237 333.068 589.155 332.903C589.155 332.89 586.415 326.65 580.935 314.183C580.735 313.736 580.515 313.38 580.275 313.113C580.254 313.089 580.226 313.072 580.195 313.064C580.164 313.056 580.132 313.057 580.102 313.068C580.071 313.079 580.045 313.098 580.026 313.124C580.007 313.15 579.997 313.181 579.995 313.213L580.045 336.763C580.045 336.92 579.984 337.071 579.873 337.184C579.763 337.296 579.613 337.36 579.455 337.363L573.205 337.373C573.041 337.373 572.883 337.307 572.767 337.188C572.651 337.07 572.585 336.91 572.585 336.743L572.505 300.843C572.505 300.767 572.52 300.691 572.55 300.621C572.579 300.551 572.621 300.487 572.675 300.433C572.729 300.379 572.793 300.336 572.863 300.307C572.934 300.278 573.009 300.263 573.085 300.263L581.485 300.243C581.626 300.243 581.764 300.283 581.882 300.357C582.001 300.432 582.095 300.538 582.155 300.663C585.029 306.77 588.189 313.686 591.635 321.413C591.882 321.966 592.135 322.243 592.395 322.243C592.635 322.243 592.879 321.966 593.125 321.413C596.552 313.68 599.695 306.756 602.555 300.643C602.614 300.516 602.708 300.408 602.827 300.332C602.945 300.256 603.084 300.214 603.225 300.213H611.615C611.692 300.213 611.767 300.228 611.837 300.257C611.908 300.286 611.972 300.329 612.026 300.383C612.079 300.437 612.122 300.501 612.151 300.571C612.18 300.641 612.195 300.717 612.195 300.793L612.215 336.693C612.215 336.86 612.15 337.02 612.034 337.138C611.918 337.257 611.76 337.323 611.595 337.323L605.355 337.333C605.196 337.333 605.044 337.27 604.931 337.157C604.819 337.045 604.755 336.892 604.755 336.733L604.735 313.173C604.734 313.141 604.724 313.11 604.705 313.084C604.686 313.058 604.659 313.039 604.629 313.028C604.599 313.017 604.566 313.016 604.535 313.024C604.504 313.032 604.477 313.049 604.455 313.073C604.222 313.346 604.005 313.706 603.805 314.153C598.359 326.633 595.635 332.88 595.635 332.893C595.554 333.057 595.435 333.2 595.288 333.311C595.141 333.422 594.969 333.498 594.785 333.533C594.392 333.606 593.595 333.643 592.395 333.643Z" fill="#323136"/>
<path d="M706.705 316.504C709.732 320.797 711.395 323.151 711.695 323.564C711.734 323.617 711.788 323.656 711.85 323.676C711.912 323.696 711.978 323.696 712.04 323.676C712.102 323.656 712.156 323.617 712.195 323.565C712.233 323.512 712.255 323.449 712.255 323.384V300.624C712.255 300.526 712.294 300.432 712.364 300.363C712.433 300.293 712.527 300.254 712.625 300.254H719.805C719.938 300.254 720.065 300.307 720.159 300.401C720.253 300.494 720.305 300.622 720.305 300.754V336.924C720.305 337.036 720.261 337.142 720.182 337.221C720.103 337.3 719.997 337.344 719.885 337.344H713.595C713.288 337.344 712.985 337.273 712.711 337.138C712.437 337.002 712.199 336.806 712.015 336.564C707.042 330.064 703.212 324.904 700.525 321.084C697.499 316.784 695.835 314.431 695.535 314.024C695.497 313.972 695.443 313.933 695.381 313.913C695.319 313.892 695.252 313.892 695.19 313.912C695.128 313.932 695.074 313.971 695.036 314.024C694.997 314.076 694.976 314.139 694.975 314.204V336.964C694.975 337.062 694.936 337.156 694.867 337.226C694.797 337.295 694.703 337.334 694.605 337.334H687.425C687.293 337.334 687.165 337.281 687.072 337.188C686.978 337.094 686.925 336.967 686.925 336.834V300.664C686.925 300.553 686.97 300.446 687.048 300.367C687.127 300.288 687.234 300.244 687.345 300.244H693.635C693.944 300.243 694.249 300.313 694.525 300.448C694.801 300.584 695.041 300.781 695.225 301.024C700.192 307.524 704.019 312.684 706.705 316.504Z" fill="#323136"/>
<path d="M437.145 306.904L432.455 311.594C432.408 311.642 432.342 311.669 432.273 311.669C432.204 311.669 432.137 311.642 432.085 311.594C426.912 306.74 421.759 306.084 416.625 309.624C408.615 315.144 412.045 328.174 421.425 329.454C425.512 330.014 429.145 328.753 432.325 325.673C432.365 325.633 432.413 325.602 432.466 325.582C432.519 325.563 432.576 325.555 432.633 325.559C432.69 325.564 432.746 325.581 432.797 325.61C432.847 325.638 432.891 325.677 432.925 325.723L436.885 330.934C436.911 330.966 436.923 331.007 436.919 331.05C436.915 331.092 436.896 331.133 436.865 331.163C431.899 336.297 426.032 338.43 419.265 337.564C406.435 335.924 399.665 321.234 405.355 310.184C411.475 298.294 428.395 296.863 437.155 306.293C437.233 306.377 437.275 306.487 437.273 306.6C437.271 306.714 437.226 306.823 437.145 306.904Z" fill="#323136"/>
<path d="M649.745 300.354C651.239 300.354 652.515 300.404 653.575 300.504C653.72 300.517 653.857 300.568 653.974 300.653C654.09 300.737 654.181 300.852 654.235 300.984L668.965 336.024C669.026 336.17 669.05 336.328 669.035 336.485C669.02 336.642 668.967 336.793 668.88 336.924C668.793 337.055 668.675 337.163 668.536 337.239C668.398 337.314 668.243 337.353 668.085 337.354H661.705C661.293 337.354 660.89 337.229 660.55 336.995C660.209 336.761 659.946 336.43 659.795 336.044L657.875 331.114C657.812 330.953 657.702 330.814 657.559 330.718C657.416 330.621 657.247 330.571 657.075 330.574C654.502 330.581 652.022 330.578 649.635 330.564C647.249 330.558 644.769 330.541 642.195 330.514C642.024 330.511 641.855 330.561 641.712 330.658C641.569 330.754 641.459 330.893 641.395 331.054L639.435 335.974C639.281 336.358 639.015 336.686 638.673 336.916C638.33 337.146 637.927 337.267 637.515 337.264L631.135 337.224C630.977 337.222 630.822 337.181 630.684 337.105C630.545 337.029 630.428 336.92 630.342 336.787C630.256 336.655 630.204 336.503 630.19 336.345C630.177 336.188 630.203 336.029 630.265 335.884L645.255 300.954C645.309 300.823 645.398 300.71 645.513 300.625C645.627 300.54 645.763 300.488 645.905 300.474C646.972 300.388 648.252 300.348 649.745 300.354ZM643.985 323.084C643.964 323.134 643.955 323.189 643.96 323.243C643.965 323.297 643.983 323.349 644.012 323.395C644.042 323.44 644.082 323.478 644.13 323.504C644.178 323.53 644.231 323.544 644.285 323.544L654.495 323.704C654.549 323.705 654.602 323.692 654.65 323.667C654.698 323.642 654.739 323.606 654.77 323.562C654.8 323.517 654.82 323.466 654.826 323.412C654.832 323.359 654.825 323.304 654.805 323.254L649.915 309.804C649.893 309.74 649.852 309.685 649.797 309.645C649.742 309.605 649.677 309.583 649.609 309.582C649.541 309.581 649.475 309.601 649.419 309.639C649.363 309.677 649.32 309.731 649.295 309.794L643.985 323.084Z" fill="#323136"/>
<path d="M741.855 300.944C741.855 300.764 741.927 300.591 742.055 300.464C742.182 300.336 742.355 300.264 742.535 300.264L758.045 300.234C760.547 300.23 763.025 300.698 765.338 301.611C767.651 302.524 769.753 303.864 771.525 305.555C773.297 307.246 774.703 309.255 775.664 311.466C776.625 313.678 777.122 316.049 777.125 318.444V319.064C777.133 323.902 775.133 328.544 771.566 331.97C768 335.397 763.157 337.326 758.105 337.334L742.595 337.364C742.506 337.364 742.418 337.347 742.335 337.313C742.253 337.278 742.178 337.228 742.115 337.165C742.051 337.102 742.001 337.027 741.967 336.945C741.933 336.862 741.915 336.774 741.915 336.684L741.855 300.944ZM750.515 307.864L750.435 329.384C750.435 329.538 750.496 329.686 750.605 329.795C750.714 329.903 750.861 329.964 751.015 329.964L757.175 329.984C760.029 329.995 762.77 328.857 764.795 326.82C766.821 324.783 767.965 322.015 767.975 319.124V318.244C767.981 316.813 767.708 315.395 767.172 314.07C766.636 312.746 765.848 311.541 764.852 310.525C763.857 309.509 762.674 308.702 761.37 308.149C760.067 307.597 758.668 307.31 757.255 307.304L751.095 307.284C750.942 307.284 750.794 307.346 750.685 307.454C750.576 307.563 750.515 307.711 750.515 307.864Z" fill="#323136"/>
</svg>
